<?xml version="1.0" encoding="UTF-8"?>
<svg version="1.1" xmlns="http://www.w3.org/2000/svg" width="500" height="500">
<path d="M0 0 C0.85801712 -0.00960754 1.71603424 -0.01921509 2.60005188 -0.02911377 C3.97981453 -0.03548859 3.97981453 -0.03548859 5.38745117 -0.04199219 C6.81899788 -0.0505423 6.81899788 -0.0505423 8.27946472 -0.05926514 C10.2976267 -0.06870288 12.31580401 -0.07524425 14.33398438 -0.07910156 C17.40872328 -0.08879876 20.48279115 -0.11983049 23.55737305 -0.15136719 C25.5215618 -0.15789862 27.48575532 -0.16314854 29.44995117 -0.16699219 C30.36372025 -0.17933899 31.27748932 -0.19168579 32.21894836 -0.20440674 C38.37604143 -0.18310575 43.553439 0.46081666 48.36010742 4.69628906 C52.8039256 10.68778184 53.37436662 14.73324649 52.61791992 22.16113281 C50.43265651 26.61259533 47.67846782 29.34998427 43.61791992 32.16113281 C40.84570542 33.08520431 39.39629632 33.24383114 36.56323242 33.16113281 C27.81324779 32.691802 27.81324779 32.691802 20.32104492 36.22753906 C19.09302324 38.53549747 18.22322814 40.62191612 17.61791992 43.16113281 C18.60791992 43.43957031 18.60791992 43.43957031 19.61791992 43.72363281 C26.37881482 46.96322829 30.46829193 51.63262523 34.11791992 58.09863281 C36.16356061 61.87403383 36.16356061 61.87403383 39.72729492 63.79394531 C42.14655748 63.75583723 42.14655748 63.75583723 45.61791992 63.16113281 C48.61791992 65.16113281 48.61791992 65.16113281 49.28979492 66.79003906 C49.76510687 70.22473373 49.84268271 73.63798071 49.86791992 77.09863281 C49.89885742 78.1534082 49.89885742 78.1534082 49.93041992 79.22949219 C49.96421549 83.73697641 49.41048986 86.5890834 46.61791992 90.16113281 C43.40340723 91.76838916 40.18179457 91.21861466 36.61791992 91.16113281 C36.30338867 91.7528125 35.98885742 92.34449219 35.66479492 92.95410156 C29.81048426 103.76341614 23.11191382 109.76301814 11.6178894 114.28657532 C5.99294798 115.92637022 0.32000035 115.75032099 -5.49926758 115.72753906 C-6.84628727 115.73279033 -8.1933033 115.73907222 -9.54031372 115.74632263 C-12.34923736 115.75666611 -15.15765254 115.7522553 -17.96655273 115.73754883 C-21.5327126 115.72038821 -25.09725682 115.74385143 -28.66323662 115.77903843 C-31.44148042 115.80120261 -34.21934906 115.79952546 -36.99765396 115.79127312 C-38.94052609 115.79007528 -40.88337592 115.80981935 -42.82614136 115.83021545 C-55.06597443 115.70323692 -64.32041152 112.05214016 -73.21411133 103.65332031 C-75.44110712 101.09327831 -76.89045363 98.60469656 -78.44458008 95.59863281 C-79.70329131 93.06613127 -79.70329131 93.06613127 -81.38208008 91.16113281 C-83.8930337 90.60951734 -85.71436782 90.7316986 -88.23364258 91.20019531 C-90.38208008 91.16113281 -90.38208008 91.16113281 -92.62817383 89.80957031 C-95.31794033 85.74796298 -94.92501463 81.92269343 -94.81958008 77.16113281 C-94.82666992 76.25878906 -94.83375977 75.35644531 -94.84106445 74.42675781 C-94.76714869 66.73951885 -94.76714869 66.73951885 -91.38208008 63.16113281 C-88.68286133 62.77050781 -88.68286133 62.77050781 -85.69458008 62.91113281 C-84.70071289 62.94722656 -83.7068457 62.98332031 -82.68286133 63.02050781 C-81.92360352 63.06691406 -81.1643457 63.11332031 -80.38208008 63.16113281 C-80.19645508 62.35675781 -80.01083008 61.55238281 -79.81958008 60.72363281 C-75.82214082 50.81693553 -68.19755704 44.7330085 -58.69458008 40.34863281 C-53.6935124 38.55579723 -48.95900235 38.03611986 -43.66796875 38.03173828 C-42.02177803 38.02701004 -42.02177803 38.02701004 -40.34233093 38.02218628 C-38.58890129 38.02522263 -38.58890129 38.02522263 -36.80004883 38.02832031 C-35.59012772 38.02736359 -34.3802066 38.02640686 -33.13362122 38.02542114 C-30.58436023 38.02474211 -28.03509749 38.02657707 -25.48583984 38.03076172 C-21.56644868 38.03613711 -17.64717092 38.03079543 -13.7277832 38.02441406 C-11.25187149 38.02507444 -8.77595985 38.02635475 -6.30004883 38.02832031 C-4.53143745 38.02528397 -4.53143745 38.02528397 -2.72709656 38.02218628 C-1.10454704 38.02691452 -1.10454704 38.02691452 0.55078125 38.03173828 C1.5075325 38.03253387 2.46428375 38.03332947 3.45002747 38.03414917 C5.61791992 38.16113281 5.61791992 38.16113281 6.61791992 39.16113281 C7.60791992 36.19113281 7.60791992 36.19113281 8.61791992 33.16113281 C7.20639648 33.21333984 7.20639648 33.21333984 5.76635742 33.26660156 C4.52112305 33.29367188 3.27588867 33.32074219 1.99291992 33.34863281 C0.14827148 33.40083984 0.14827148 33.40083984 -1.73364258 33.45410156 C-6.51523583 33.07014065 -9.71670976 31.69732347 -13.24536133 28.44238281 C-13.72360352 27.85457031 -14.2018457 27.26675781 -14.69458008 26.66113281 C-15.18571289 26.07332031 -15.6768457 25.48550781 -16.18286133 24.87988281 C-18.7921243 21.14022253 -18.68128998 17.57447893 -18.38208008 13.16113281 C-16.51858683 7.78988757 -13.06679413 4.25405155 -8.38208008 1.16113281 C-5.54174861 0.28898239 -2.96321784 0.02691759 0 0 Z " fill="#FAFBFD" transform="translate(270.382080078125,130.8388671875)"/>
<path d="M0 0 C1.10068817 0.00007553 2.20137634 0.00015106 3.3354187 0.00022888 C5.09355392 0.00797081 5.09355392 0.00797081 6.88720703 0.01586914 C8.09949982 0.01728409 9.3117926 0.01869904 10.56082153 0.02015686 C14.42224626 0.02574194 18.28361241 0.03829178 22.14501953 0.05102539 C24.76741453 0.05604232 27.38981043 0.06060489 30.01220703 0.06469727 C36.43149775 0.0757065 42.85075446 0.09242984 49.27001953 0.11352539 C48.77271302 5.08659055 47.71699619 8.75152353 45.27001953 13.11352539 C44.62157578 13.11939163 43.97313202 13.12525787 43.30503845 13.13130188 C36.53990779 13.19536653 29.77524708 13.27982027 23.01049805 13.37597656 C20.48777472 13.40917668 17.96497799 13.43722381 15.44213867 13.45996094 C11.81022948 13.49359635 8.17898996 13.54591906 4.54736328 13.60180664 C2.86259132 13.61139153 2.86259132 13.61139153 1.14378357 13.62117004 C-7.56128041 13.78363856 -13.65395913 15.37009226 -20.15185547 21.41430664 C-25.56543104 27.24328033 -26.39168612 33.31291466 -26.34130859 41.10253906 C-25.98549199 48.55114103 -23.35677471 53.69768562 -17.98388672 58.75805664 C-10.74448463 64.35287295 -3.25902498 64.42134211 5.57080078 64.41430664 C7.35722237 64.42073433 7.35722237 64.42073433 9.17973328 64.42729187 C11.69541794 64.43302569 14.21111919 64.43354244 16.72680664 64.42919922 C20.55855904 64.42604511 24.38953469 64.44949135 28.22119141 64.47485352 C30.67106023 64.4771273 33.12093112 64.47782964 35.57080078 64.47680664 C37.27747673 64.49062126 37.27747673 64.49062126 39.01863098 64.50471497 C48.16293642 64.45202955 55.87911673 63.25516952 62.76611328 56.86352539 C67.9222441 50.86366407 69.70220334 43.85446492 69.60986328 36.09790039 C68.84645498 29.39394706 65.67904113 24.02764624 60.64501953 19.61352539 C58.57491667 18.00240461 56.45659024 16.5712392 54.27001953 15.11352539 C55.83320361 11.27661902 58.06535103 8.7219765 61.27001953 6.11352539 C67.08020495 6.55326567 70.4984933 9.94461613 74.27001953 14.11352539 C75.47322021 16.0706968 76.63963456 18.05091499 77.77001953 20.05102539 C79.81566022 23.82642641 79.81566022 23.82642641 83.37939453 25.74633789 C85.79865709 25.7082298 85.79865709 25.7082298 89.27001953 25.11352539 C92.27001953 27.11352539 92.27001953 27.11352539 92.94189453 28.74243164 C93.41720648 32.17712631 93.49478232 35.59037329 93.52001953 39.05102539 C93.55095703 40.10580078 93.55095703 40.10580078 93.58251953 41.18188477 C93.6163151 45.68936899 93.06258947 48.54147598 90.27001953 52.11352539 C87.05550684 53.72078174 83.83389418 53.17100724 80.27001953 53.11352539 C79.95548828 53.70520508 79.64095703 54.29688477 79.31689453 54.90649414 C73.46258387 65.71580871 66.76401343 71.71541072 55.26998901 76.2389679 C49.64504759 77.8787628 43.97209996 77.70271357 38.15283203 77.67993164 C36.80581233 77.68518291 35.45879631 77.6914648 34.11178589 77.69871521 C31.30286225 77.70905869 28.49444707 77.70464788 25.68554688 77.68994141 C22.11938701 77.67278079 18.55484279 77.69624401 14.98886299 77.73143101 C12.21061918 77.75359519 9.43275055 77.75191803 6.65444565 77.7436657 C4.71157352 77.74246786 2.76872369 77.76221193 0.82595825 77.78260803 C-11.41387482 77.6556295 -20.66831191 74.00453274 -29.56201172 65.60571289 C-31.78900751 63.04567089 -33.23835403 60.55708914 -34.79248047 57.55102539 C-36.0511917 55.01852385 -36.0511917 55.01852385 -37.72998047 53.11352539 C-40.24093409 52.56190992 -42.06226821 52.68409118 -44.58154297 53.15258789 C-46.72998047 53.11352539 -46.72998047 53.11352539 -48.97607422 51.76196289 C-51.66584072 47.70035556 -51.27291503 43.87508601 -51.16748047 39.11352539 C-51.17457031 38.21118164 -51.18166016 37.30883789 -51.18896484 36.37915039 C-51.11504908 28.69191143 -51.11504908 28.69191143 -47.72998047 25.11352539 C-45.03076172 24.72290039 -45.03076172 24.72290039 -42.04248047 24.86352539 C-41.04861328 24.89961914 -40.05474609 24.93571289 -39.03076172 24.97290039 C-37.891875 25.04250977 -37.891875 25.04250977 -36.72998047 25.11352539 C-36.54435547 24.30915039 -36.35873047 23.50477539 -36.16748047 22.67602539 C-32.17004122 12.76932811 -24.54545743 6.68540107 -15.04248047 2.30102539 C-10.03186122 0.50476566 -5.30113367 -0.01221459 0 0 Z " fill="#0B428D" transform="translate(226.72998046875,168.886474609375)"/>
<path d="M0 0 C0.85801712 -0.00960754 1.71603424 -0.01921509 2.60005188 -0.02911377 C3.97981453 -0.03548859 3.97981453 -0.03548859 5.38745117 -0.04199219 C6.81899788 -0.0505423 6.81899788 -0.0505423 8.27946472 -0.05926514 C10.2976267 -0.06870288 12.31580401 -0.07524425 14.33398438 -0.07910156 C17.40872328 -0.08879876 20.48279115 -0.11983049 23.55737305 -0.15136719 C25.5215618 -0.15789862 27.48575532 -0.16314854 29.44995117 -0.16699219 C30.36372025 -0.17933899 31.27748932 -0.19168579 32.21894836 -0.20440674 C38.37604143 -0.18310575 43.553439 0.46081666 48.36010742 4.69628906 C52.8039256 10.68778184 53.37436662 14.73324649 52.61791992 22.16113281 C50.43265651 26.61259533 47.67846782 29.34998427 43.61791992 32.16113281 C40.36345415 33.24595474 37.70303434 33.11250219 34.30932617 33.04370117 C26.65953709 32.84090292 26.65953709 32.84090292 20.22729492 36.32128906 C18.57145758 39.09412832 18.57145758 39.09412832 17.18823242 42.09082031 C13.77931821 48.75601078 7.7926102 54.79935754 0.61791992 57.16113281 C1.78777549 53.45659018 3.13438533 49.8731866 4.61791992 46.28613281 C6.37646579 41.95538553 7.60470576 37.72059654 8.61791992 33.16113281 C7.20639648 33.21333984 7.20639648 33.21333984 5.76635742 33.26660156 C4.52112305 33.29367188 3.27588867 33.32074219 1.99291992 33.34863281 C0.14827148 33.40083984 0.14827148 33.40083984 -1.73364258 33.45410156 C-6.51523583 33.07014065 -9.71670976 31.69732347 -13.24536133 28.44238281 C-13.72360352 27.85457031 -14.2018457 27.26675781 -14.69458008 26.66113281 C-15.18571289 26.07332031 -15.6768457 25.48550781 -16.18286133 24.87988281 C-18.7921243 21.14022253 -18.68128998 17.57447893 -18.38208008 13.16113281 C-16.51858683 7.78988757 -13.06679413 4.25405155 -8.38208008 1.16113281 C-5.54174861 0.28898239 -2.96321784 0.02691759 0 0 Z " fill="#0C428D" transform="translate(270.382080078125,130.8388671875)"/>
<path d="M0 0 C5.28 0 10.56 0 16 0 C18.64 8.91 21.28 17.82 24 27 C26.40567003 20.68765643 26.40567003 20.68765643 28.3515625 14.31640625 C28.56296875 13.53458984 28.774375 12.75277344 28.9921875 11.94726562 C29.20101562 11.16029297 29.40984375 10.37332031 29.625 9.5625 C31.86771845 1.13228155 31.86771845 1.13228155 33 0 C38.28 0 43.56 0 49 0 C49 14.19 49 28.38 49 43 C45.37 43 41.74 43 38 43 C37.67 35.08 37.34 27.16 37 19 C34.69 26.92 32.38 34.84 30 43 C26.04 43 22.08 43 18 43 C15.69 35.08 13.38 27.16 11 19 C10.67 26.92 10.34 34.84 10 43 C6.7 43 3.4 43 0 43 C0 28.81 0 14.62 0 0 Z " fill="#0D356E" transform="translate(138,268)"/>
<path d="M0 0 C5.28 0 10.56 0 16 0 C17.58551072 2.83213365 19.16845272 5.66565403 20.75 8.5 C21.1934375 9.29148437 21.636875 10.08296875 22.09375 10.8984375 C22.53203125 11.68476563 22.9703125 12.47109375 23.421875 13.28125 C24.01887207 14.34956055 24.01887207 14.34956055 24.62792969 15.43945312 C26.49331889 18.92062786 28.23374665 22.46749331 30 26 C30.33 17.42 30.66 8.84 31 0 C34.63 0 38.26 0 42 0 C42 14.19 42 28.38 42 43 C36.72 43 31.44 43 26 43 C24.60102437 40.54341098 23.20580093 38.08480544 21.8125 35.625 C21.42513672 34.94566406 21.03777344 34.26632812 20.63867188 33.56640625 C17.55689088 28.11598367 14.81033788 22.62067576 12 17 C11.67 25.58 11.34 34.16 11 43 C7.37 43 3.74 43 0 43 C0 28.81 0 14.62 0 0 Z " fill="#123A71" transform="translate(251,268)"/>
<path d="M0 0 C25.67941129 -0.77347624 25.67941129 -0.77347624 32 5 C37.31251891 11.61531646 37.6993238 18.85135748 37 27 C35.46297748 33.46136856 32.36772916 37.13206544 27 40.90625 C18.89733603 45.33739436 8.59447541 43 0 43 C0 28.81 0 14.62 0 0 Z M12 10 C12 17.59 12 25.18 12 33 C18.58862504 33.72291834 18.58862504 33.72291834 21.375 31.125 C25.08554895 26.27274368 24.68401848 20.90457334 24 15 C22.18328877 11.59717579 22.18328877 11.59717579 19 10 C16.69 10 14.38 10 12 10 Z " fill="#0F376F" transform="translate(345,268)"/>
<path d="M0 0 C5.61 0 11.22 0 17 0 C18.85909184 5.47838765 20.7102799 10.95935801 22.55419922 16.44287109 C23.18256659 18.30786026 23.81308632 20.17212567 24.44580078 22.03564453 C25.35495984 24.71459517 26.25634272 27.39605456 27.15625 30.078125 C27.44060913 30.91055725 27.72496826 31.7429895 28.01794434 32.60064697 C28.27821411 33.38115417 28.53848389 34.16166138 28.80664062 34.96582031 C29.15305603 35.99174286 29.15305603 35.99174286 29.50646973 37.03839111 C30 39 30 39 30 43 C25.71 43 21.42 43 17 43 C16.01 39.535 16.01 39.535 15 36 C10.71 35.67 6.42 35.34 2 35 C1.34 37.64 0.68 40.28 0 43 C-4.29 43 -8.58 43 -13 43 C-11.45054558 33.60993285 -8.43626049 24.85418273 -5.375 15.875 C-4.85360505 14.33091869 -4.33276723 12.78664915 -3.8125 11.2421875 C-2.54909261 7.49220122 -1.27435571 3.74635006 0 0 Z M8 9 C7.49411853 10.91512272 6.99551609 12.83216922 6.5 14.75 C6.2215625 15.81734375 5.943125 16.8846875 5.65625 17.984375 C4.85824011 21.13705302 4.85824011 21.13705302 5 25 C7.64 25 10.28 25 13 25 C11.68 19.72 10.36 14.44 9 9 C8.67 9 8.34 9 8 9 Z " fill="#0F376F" transform="translate(103,268)"/>
<path d="M0 0 C1.48831242 0.00667405 2.97660807 0.01863442 4.46484375 0.03515625 C5.22345703 0.03966797 5.98207031 0.04417969 6.76367188 0.04882812 C8.64326246 0.06064945 10.52281274 0.07858547 12.40234375 0.09765625 C14.40770135 5.37638409 16.31334151 10.67152009 18.1015625 16.02734375 C18.34147415 16.74375031 18.5813858 17.46015686 18.8285675 18.19827271 C19.32928176 19.69539759 19.8292086 21.19278605 20.32836914 22.69042969 C21.09520865 24.98873547 21.86685481 27.28539294 22.63867188 29.58203125 C23.12659501 31.04287094 23.61423559 32.50380505 24.1015625 33.96484375 C24.33276291 34.65125946 24.56396332 35.33767517 24.8021698 36.04489136 C26.40234375 40.86879604 26.40234375 40.86879604 26.40234375 43.09765625 C22.11234375 43.09765625 17.82234375 43.09765625 13.40234375 43.09765625 C11.40234375 38.09765625 11.40234375 38.09765625 11.40234375 35.09765625 C6.78234375 35.09765625 2.16234375 35.09765625 -2.59765625 35.09765625 C-2.81421875 36.79921875 -2.81421875 36.79921875 -3.03515625 38.53515625 C-3.59765625 42.09765625 -3.59765625 42.09765625 -4.59765625 43.09765625 C-6.78405078 43.17024571 -8.97266014 43.18139408 -11.16015625 43.16015625 C-12.95646484 43.14662109 -12.95646484 43.14662109 -14.7890625 43.1328125 C-15.71589844 43.12121094 -16.64273437 43.10960937 -17.59765625 43.09765625 C-15.41409449 34.66126943 -12.83785167 26.36542383 -10.15380859 18.078125 C-9.46297139 15.94271997 -8.77818608 13.80543296 -8.09375 11.66796875 C-7.65530587 10.30847825 -7.21651704 8.94909887 -6.77734375 7.58984375 C-6.38272949 6.3663623 -5.98811523 5.14288086 -5.58154297 3.88232422 C-4.25059561 0.1153799 -4.25059561 0.1153799 0 0 Z M3.40234375 11.09765625 C2.41234375 15.71765625 1.42234375 20.33765625 0.40234375 25.09765625 C3.04234375 25.09765625 5.68234375 25.09765625 8.40234375 25.09765625 C8.09106859 23.51408166 7.77827086 21.93080632 7.46484375 20.34765625 C7.29082031 19.4659375 7.11679687 18.58421875 6.9375 17.67578125 C6.47865887 15.46530572 5.96898301 13.28253557 5.40234375 11.09765625 C4.74234375 11.09765625 4.08234375 11.09765625 3.40234375 11.09765625 Z " fill="#0E366E" transform="translate(314.59765625,267.90234375)"/>
<path d="M0 0 C3.96 0 7.92 0 12 0 C12.01401855 1.28632324 12.01401855 1.28632324 12.02832031 2.59863281 C12.07241291 5.78972679 12.13406056 8.97986756 12.20751953 12.17041016 C12.23569099 13.54951651 12.25692472 14.92878318 12.27099609 16.30810547 C12.29247545 18.29422949 12.34123132 20.27999909 12.390625 22.265625 C12.41157227 23.45961914 12.43251953 24.65361328 12.45410156 25.88378906 C13.09952486 29.56812847 13.99097161 30.82703904 17 33 C20.19954954 32.85650653 20.19954954 32.85650653 23 32 C24.12183708 28.63448877 24.20800968 25.90939768 24.31640625 22.36328125 C24.35830078 21.06455078 24.40019531 19.76582031 24.44335938 18.42773438 C24.48316987 17.05599239 24.52288216 15.68424756 24.5625 14.3125 C24.60570835 12.92902355 24.64932339 11.54555973 24.69335938 10.16210938 C24.79958028 6.77484281 24.90162358 3.38750201 25 0 C28.96 0 32.92 0 37 0 C37.09965569 4.26832981 37.17183391 8.53602469 37.21972656 12.80517578 C37.23971295 14.25418917 37.26691197 15.70312325 37.30175781 17.15185547 C37.65537543 32.24300725 37.65537543 32.24300725 33 39 C27.4141922 43.53846883 22.61937723 44.36405607 15.6015625 44.28125 C10.13679863 43.69046472 6.30315237 41.3699807 2.5625 37.4375 C-0.14327518 33.21649071 -0.13418364 29.55120418 -0.09765625 24.70703125 C-0.0962413 24.00100266 -0.09482635 23.29497406 -0.09336853 22.56755066 C-0.08777764 20.31582374 -0.07522688 18.06419679 -0.0625 15.8125 C-0.05748382 14.28450665 -0.05292112 12.75651173 -0.04882812 11.22851562 C-0.0378112 7.48563865 -0.02055287 3.74283627 0 0 Z " fill="#0E366F" transform="translate(389,268)"/>
<path d="M0 0 C11.22 0 22.44 0 34 0 C34 2.97 34 5.94 34 9 C33.67 9.33 33.34 9.66 33 10 C29.7 10 26.4 10 23 10 C23 20.89 23 31.78 23 43 C19.04 43 15.08 43 11 43 C11 32.11 11 21.22 11 10 C7.37 10 3.74 10 0 10 C0 6.7 0 3.4 0 0 Z " fill="#113870" transform="translate(55,268)"/>
<path d="M0 0 C3.96 0 7.92 0 12 0 C12 10.89 12 21.78 12 33 C17.28 33 22.56 33 28 33 C28 36.3 28 39.6 28 43 C18.76 43 9.52 43 0 43 C0 28.81 0 14.62 0 0 Z " fill="#0E366E" transform="translate(217,268)"/>
<path d="M0 0 C3.96 0 7.92 0 12 0 C12 14.19 12 28.38 12 43 C8.04 43 4.08 43 0 43 C0 28.81 0 14.62 0 0 Z " fill="#0E366E" transform="translate(196,268)"/>
<path d="M0 0 C4.09613637 1.80992072 6.73195328 4.1359204 9 8 C9.70679711 12.31931569 9.49822307 15.85408693 7.75 19.875 C5.36984516 22.76518802 3.38108991 24.72651685 -0.3671875 25.46875 C-4.72839788 25.5230953 -7.99129387 25.5500512 -11.5 22.75 C-14.80640712 19.11295217 -15.83222901 17.50993888 -16.375 12.625 C-15.92515417 8.27649031 -14.79790424 6.32723747 -12 3 C-8.06991695 -0.18655382 -4.99020009 -0.5346643 0 0 Z " fill="#0D438E" transform="translate(274,195)"/>
<path d="M0 0 C3.00559099 1.79335679 5.40823657 3.81647313 7 7 C7.37168996 12.57534937 7.22542715 16.21747009 4 21 C0.23709014 24.42082715 -3.73224217 24.56749279 -8.625 24.421875 C-13.10335119 23.62637841 -14.85661252 20.63341069 -17.3125 17.125 C-18.35640137 13.89839575 -18.34887144 11.37242397 -18 8 C-13.8351777 -0.02113925 -8.60103757 -2.52438185 0 0 Z " fill="#0E438E" transform="translate(231,196)"/>
<path d="M0 0 C12.87 0 25.74 0 39 0 C39 3.63 39 7.26 39 11 C26.13 11 13.26 11 0 11 C0 7.37 0 3.74 0 0 Z " fill="#144991" transform="translate(229,247)"/>
<path d="M0 0 C1.47919922 0.06960937 1.47919922 0.06960937 2.98828125 0.140625 C3.98214844 0.17671875 4.97601563 0.2128125 6 0.25 C7.13888672 0.31960937 7.13888672 0.31960937 8.30078125 0.390625 C8.13835937 1.0403125 7.9759375 1.69 7.80859375 2.359375 C7.16016982 6.22996709 7.15548825 9.97407626 7.17578125 13.890625 C7.17191406 14.63699219 7.16804687 15.38335937 7.1640625 16.15234375 C7.17097398 20.05733056 7.48985914 23.55717504 8.30078125 27.390625 C6.73136927 28.96003698 5.15943131 28.6356097 2.98828125 28.703125 C2.20839844 28.74050781 1.42851562 28.77789062 0.625 28.81640625 C-1.69921875 28.390625 -1.69921875 28.390625 -3.96484375 26.99609375 C-6.64730954 22.96635347 -6.24145205 19.12051594 -6.13671875 14.390625 C-6.14380859 13.48828125 -6.15089844 12.5859375 -6.15820312 11.65625 C-6.05454881 0.87620099 -6.05454881 0.87620099 0 0 Z " fill="#2F5E9E" transform="translate(181.69921875,193.609375)"/>
<path d="M0 0 C1.258125 -0.04125 2.51625 -0.0825 3.8125 -0.125 C4.52019531 -0.14820313 5.22789062 -0.17140625 5.95703125 -0.1953125 C8 0 8 0 11 2 C12.54143898 5.73709335 12.2209217 9.95013779 12.25 13.9375 C12.270625 14.64068359 12.29125 15.34386719 12.3125 16.06835938 C12.34629557 20.5758436 11.79256994 23.42795059 9 27 C6.04335481 28.4783226 3.25770263 28.06032783 0 28 C-1.25713591 24.36827405 -0.63515056 21.7403311 0 18 C0.21684356 13.59887894 0.06129206 9.4290444 -0.5625 5.0625 C-1 2 -1 2 0 0 Z " fill="#315F9F" transform="translate(308,194)"/>
<path d="M0 0 C2.64 0 5.28 0 8 0 C9.65 2.97 11.3 5.94 13 9 C13.33 6.03 13.66 3.06 14 0 C15.65 0 17.3 0 19 0 C19 6.27 19 12.54 19 19 C12 19 12 19 10.22265625 17.25 C9.83980469 16.5075 9.45695313 15.765 9.0625 15 C8.66160156 14.2575 8.26070312 13.515 7.84765625 12.75 C7.56792969 12.1725 7.28820312 11.595 7 11 C6.67 13.64 6.34 16.28 6 19 C4.02 19 2.04 19 0 19 C0 12.73 0 6.46 0 0 Z " fill="#24487C" transform="translate(239,338)"/>
<path d="M0 0 C2.64365079 1.87613927 2.95241281 2.85723843 4 6 C4.36694508 10.95375862 4.22800966 14.10412627 1 18 C-2.07709402 19.88044634 -3.93490476 20.00114202 -7.5625 19.9375 C-11 19 -11 19 -13.4375 17 C-15.56527397 12.91467397 -15.82677934 9.51863559 -15 5 C-11.13763946 -1.39287261 -6.75015498 -1.6065087 0 0 Z M-7 4 C-9.41121859 5.95633975 -9.41121859 5.95633975 -9.125 9.625 C-9.08375 10.73875 -9.0425 11.8525 -9 13 C-7.02 13.99 -7.02 13.99 -5 15 C-3.29264699 13.96431405 -3.29264699 13.96431405 -2 12 C-2.23477199 8.35458155 -2.23477199 8.35458155 -3 5 C-4.89179203 4.3185177 -4.89179203 4.3185177 -7 4 Z " fill="#22477B" transform="translate(378,338)"/>
<path d="M0 0 C1.98 0 3.96 0 6 0 C6 2.31 6 4.62 6 7 C7.65 7 9.3 7 11 7 C11 4.69 11 2.38 11 0 C12.98 0 14.96 0 17 0 C17 6.27 17 12.54 17 19 C15.02 19 13.04 19 11 19 C11 16.69 11 14.38 11 12 C9.35 12 7.7 12 6 12 C6 14.31 6 16.62 6 19 C4.02 19 2.04 19 0 19 C0 12.73 0 6.46 0 0 Z " fill="#22477A" transform="translate(101,338)"/>
<path d="M0 0 C-0.33 1.65 -0.66 3.3 -1 5 C-2.11375 4.938125 -3.2275 4.87625 -4.375 4.8125 C-6.169375 4.9053125 -6.169375 4.9053125 -8 5 C-10.29013653 8.4352048 -10.17842973 9.985331 -10 14 C-8.35 14.33 -6.7 14.66 -5 15 C-5 14.01 -5 13.02 -5 12 C-5.99 12 -6.98 12 -8 12 C-8 10.68 -8 9.36 -8 8 C-5.03 8 -2.06 8 1 8 C1 11.3 1 14.6 1 18 C-3.7432608 19.96671789 -7.00636229 20.29464681 -12 19 C-14.5549383 17.31911954 -15.67561527 16.06935105 -16.56640625 13.1328125 C-17.2155575 9.51123182 -17.24096114 7.52781964 -15.6875 4.125 C-10.90663586 -1.89534744 -7.13603397 -1.0704051 0 0 Z " fill="#264A7D" transform="translate(214,338)"/>
<path d="M0 0 C0.33 0.66 0.66 1.32 1 2 C0.01 3.485 0.01 3.485 -1 5 C-2.9453125 5.29296875 -2.9453125 5.29296875 -5.125 5.1875 C-6.40375 5.125625 -7.6825 5.06375 -9 5 C-9 7.97 -9 10.94 -9 14 C-7.35 14.33 -5.7 14.66 -4 15 C-4 14.01 -4 13.02 -4 12 C-5.32 12 -6.64 12 -8 12 C-8 10.68 -8 9.36 -8 8 C-5.03 8 -2.06 8 1 8 C1 11.63 1 15.26 1 19 C-8.85116279 20.64186047 -8.85116279 20.64186047 -14 17 C-16.63112918 13.65129014 -16.36141398 10.12011936 -16 6 C-14.67918573 2.87175568 -13.68454014 1.43028238 -10.8125 -0.375 C-6.86419657 -1.25240076 -3.9720519 -0.79441038 0 0 Z " fill="#22467A" transform="translate(324,338)"/>
<path d="M0 0 C10.625 -0.25 10.625 -0.25 14 2 C14.24257107 5.2747094 14.30245982 8.03762784 13.3125 11.1875 C12.75559185 13.16747171 12.75559185 13.16747171 14.4375 15.125 C15.2109375 16.053125 15.2109375 16.053125 16 17 C16 17.66 16 18.32 16 19 C13.1875 19.3125 13.1875 19.3125 10 19 C8.125 16.5 8.125 16.5 7 14 C6.67 15.65 6.34 17.3 6 19 C4.02 19 2.04 19 0 19 C0 12.73 0 6.46 0 0 Z M6 4 C6 5.32 6 6.64 6 8 C6.66 8 7.32 8 8 8 C8 6.68 8 5.36 8 4 C7.34 4 6.68 4 6 4 Z " fill="#1C4177" transform="translate(385,338)"/>
<path d="M0 0 C10.625 -0.25 10.625 -0.25 14 2 C14.24257107 5.2747094 14.30245982 8.03762784 13.3125 11.1875 C12.75559185 13.16747171 12.75559185 13.16747171 14.4375 15.125 C15.2109375 16.053125 15.2109375 16.053125 16 17 C16 17.66 16 18.32 16 19 C13.1875 19.3125 13.1875 19.3125 10 19 C8.125 16.5 8.125 16.5 7 14 C6.67 15.65 6.34 17.3 6 19 C4.02 19 2.04 19 0 19 C0 12.73 0 6.46 0 0 Z M6 4 C6 5.32 6 6.64 6 8 C6.66 8 7.32 8 8 8 C8 6.68 8 5.36 8 4 C7.34 4 6.68 4 6 4 Z " fill="#1C4177" transform="translate(136,338)"/>
<path d="M0 0 C2.64 0 5.28 0 8 0 C9.98 6.27 11.96 12.54 14 19 C11.69 19 9.38 19 7 19 C7 18.01 7 17.02 7 16 C4.02934491 16.34227572 4.02934491 16.34227572 1 17 C0.67 17.66 0.34 18.32 0 19 C-1.98 19 -3.96 19 -6 19 C-4.70024676 12.28460827 -2.70071112 6.27980887 0 0 Z M3 5 C2.67 6.98 2.34 8.96 2 11 C2.99 11 3.98 11 5 11 C4.67 9.02 4.34 7.04 4 5 C3.67 5 3.34 5 3 5 Z " fill="#1F4579" transform="translate(183,338)"/>
<path d="M0 0 C2.64 0 5.28 0 8 0 C10.70071112 6.27980887 12.70024676 12.28460827 14 19 C12.02 19 10.04 19 8 19 C7.67 18.34 7.34 17.68 7 17 C3.97065509 16.34227572 3.97065509 16.34227572 1 16 C1 16.99 1 17.98 1 19 C-0.98 19 -2.96 19 -5 19 C-3.83795007 12.45150687 -2.26616615 6.25461856 0 0 Z M4 5 C3.67 6.98 3.34 8.96 3 11 C3.99 11 4.98 11 6 11 C5.67 9.02 5.34 7.04 5 5 C4.67 5 4.34 5 4 5 Z " fill="#1D4277" transform="translate(332,338)"/>
<path d="M0 0 C2.64 0 5.28 0 8 0 C10.70071112 6.27980887 12.70024676 12.28460827 14 19 C12.02 19 10.04 19 8 19 C7.67 18.34 7.34 17.68 7 17 C3.97065509 16.34227572 3.97065509 16.34227572 1 16 C1 16.99 1 17.98 1 19 C-0.98 19 -2.96 19 -5 19 C-3.83795007 12.45150687 -2.26616615 6.25461856 0 0 Z M4 5 C3.67 6.98 3.34 8.96 3 11 C3.99 11 4.98 11 6 11 C5.67 9.02 5.34 7.04 5 5 C4.67 5 4.34 5 4 5 Z " fill="#1D4277" transform="translate(265,338)"/>
<path d="M0 0 C2.31 0 4.62 0 7 0 C7.66 2.64 8.32 5.28 9 8 C9.433125 7.13375 9.433125 7.13375 9.875 6.25 C11.4375 3.125 11.4375 3.125 13 0 C14.98 0 16.96 0 19 0 C17.3186083 6.48707154 15.46937673 12.7677635 13 19 C10.69 19 8.38 19 6 19 C4.99619084 16.20964954 3.9968055 13.41785145 3 10.625 C2.57074219 9.43390625 2.57074219 9.43390625 2.1328125 8.21875 C1.86210937 7.45820313 1.59140625 6.69765625 1.3125 5.9140625 C1.06113281 5.2123291 0.80976563 4.5105957 0.55078125 3.78759766 C0 2 0 2 0 0 Z " fill="#1E4378" transform="translate(279,338)"/>
<path d="M0 0 C2.68260058 2.12292132 4.03705687 3.57601436 5.12890625 6.8515625 C-4.44109375 6.8515625 -14.01109375 6.8515625 -23.87109375 6.8515625 C-21.4267249 1.9628248 -19.73402953 -0.34481814 -14.68359375 -2.5234375 C-9.32392373 -3.40207193 -4.69612038 -2.88237869 0 0 Z " fill="#114690" transform="translate(257.87109375,161.1484375)"/>
<path d="M0 0 C3.96 0 7.92 0 12 0 C12 1.32 12 2.64 12 4 C10.02 4 8.04 4 6 4 C6 4.99 6 5.98 6 7 C7.65 7 9.3 7 11 7 C11.5625 8.9375 11.5625 8.9375 12 11 C11 12 11 12 8.4375 12.0625 C7.633125 12.041875 6.82875 12.02125 6 12 C6 12.66 6 13.32 6 14 C7.65 14 9.3 14 11 14 C11.33 15.65 11.66 17.3 12 19 C8.04 19 4.08 19 0 19 C0 12.73 0 6.46 0 0 Z " fill="#21467A" transform="translate(121,338)"/>
<path d="M0 0 C3.96 0 7.92 0 12 0 C12 1.32 12 2.64 12 4 C10.02 4 8.04 4 6 4 C6 4.99 6 5.98 6 7 C7.65 7 9.3 7 11 7 C11 8.65 11 10.3 11 12 C9.35 12 7.7 12 6 12 C6 12.66 6 13.32 6 14 C7.65 14 9.3 14 11 14 C11.33 15.65 11.66 17.3 12 19 C8.04 19 4.08 19 0 19 C0 12.73 0 6.46 0 0 Z " fill="#1D4377" transform="translate(218,338)"/>
<path d="M0 0 C4.95 0 9.9 0 15 0 C15 1.65 15 3.3 15 5 C13.68 5 12.36 5 11 5 C11 9.62 11 14.24 11 19 C9.02 19 7.04 19 5 19 C5 14.38 5 9.76 5 5 C3.35 4.67 1.7 4.34 0 4 C0 2.68 0 1.36 0 0 Z " fill="#254A7C" transform="translate(346,338)"/>
<path d="M0 0 C4.95 0 9.9 0 15 0 C14.67 1.65 14.34 3.3 14 5 C12.68 5 11.36 5 10 5 C10 9.62 10 14.24 10 19 C8.02 19 6.04 19 4 19 C4 14.38 4 9.76 4 5 C2.68 5 1.36 5 0 5 C0 3.35 0 1.7 0 0 Z " fill="#254A7C" transform="translate(162,338)"/>
<path d="M0 0 C2.31282587 3.46923881 2.42478586 4.92205575 2 9 C0.875 10.875 0.875 10.875 -1 12 C-4.65259739 12.54400387 -6.3433886 12.43774093 -9.4375 10.375 C-11 8 -11 8 -10.9375 4.9375 C-8.90323234 -1.43653868 -6.38029706 -1.62407561 0 0 Z " fill="#F1F4F8" transform="translate(275,202)"/>
<path d="M0 0 C2 1.0625 2 1.0625 3 3 C2.66666667 9.33333333 2.66666667 9.33333333 0 12 C-3.4375 12.375 -3.4375 12.375 -7 12 C-9.42061048 9.89172636 -9.9127007 8.59654522 -10.375 5.4375 C-10 3 -10 3 -8.9375 1.1875 C-5.90624457 -0.67036623 -3.46577141 -0.37133265 0 0 Z " fill="#F7F9FB" transform="translate(229,202)"/>
<path d="M0 0 C2.9375 0.8125 2.9375 0.8125 4.9375 2.8125 C5.26765665 5.91597254 5.44281294 7.97031176 3.8125 10.6875 C1.02643958 12.35913625 -0.88238862 12.27626624 -4.0625 11.8125 C-6 10.125 -6 10.125 -7.0625 7.8125 C-6.92427181 4.97882207 -6.38805369 3.32653215 -4.875 0.9375 C-3.0625 -0.1875 -3.0625 -0.1875 0 0 Z " fill="#1B4E94" transform="translate(311.0625,166.1875)"/>
<path d="M0 0 C2.9375 0.8125 2.9375 0.8125 4.9375 2.8125 C5.26765665 5.91597254 5.44281294 7.97031176 3.8125 10.6875 C1.02643958 12.35913625 -0.88238862 12.27626624 -4.0625 11.8125 C-6 10.125 -6 10.125 -7.0625 7.8125 C-6.92427181 4.97882207 -6.38805369 3.32653215 -4.875 0.9375 C-3.0625 -0.1875 -3.0625 -0.1875 0 0 Z " fill="#1B4E95" transform="translate(187.0625,166.1875)"/>
<path d="M0 0 C1.98 0 3.96 0 6 0 C6 6.27 6 12.54 6 19 C4.02 19 2.04 19 0 19 C0 12.73 0 6.46 0 0 Z " fill="#264A7D" transform="translate(299,338)"/>
<path d="M0 0 C1.98 0 3.96 0 6 0 C6 6.27 6 12.54 6 19 C4.02 19 2.04 19 0 19 C0 12.73 0 6.46 0 0 Z " fill="#264A7D" transform="translate(154,338)"/>
<path d="M0 0 C1.32 0 2.64 0 4 0 C4 4.62 4 9.24 4 14 C2.68 14 1.36 14 0 14 C0 9.38 0 4.76 0 0 Z " fill="#2D5C9D" transform="translate(308,179)"/>
<path d="M0 0 C1.32 0 2.64 0 4 0 C4 4.62 4 9.24 4 14 C2.68 14 1.36 14 0 14 C0 9.38 0 4.76 0 0 Z " fill="#2E5D9D" transform="translate(184,179)"/>
<path d="M0 0 C0.99 0.66 1.98 1.32 3 2 C0.36 4.31 -2.28 6.62 -5 9 C-5.66 8.67 -6.32 8.34 -7 8 C-4.69 5.36 -2.38 2.72 0 0 Z " fill="#D0DAE9" transform="translate(287,173)"/>
</svg>
